<?xml version="1.0" standalone="no"?>
<!DOCTYPE svg PUBLIC "-//W3C//DTD SVG 20010904//EN"
 "http://www.w3.org/TR/2001/REC-SVG-20010904/DTD/svg10.dtd">
<svg version="1.0" xmlns="http://www.w3.org/2000/svg"
 width="640.000000pt" height="540.000000pt" viewBox="0 0 640.000000 540.000000"
 preserveAspectRatio="xMidYMid meet">

<g transform="translate(0.000000,540.000000) scale(0.100000,-0.100000)"
fill="#000000" stroke="none">
<path d="M5050 5393 c-45 -17 -73 -64 -126 -210 -91 -250 -506 -1170 -967
-2141 -286 -601 -389 -787 -547 -987 -231 -291 -416 -440 -663 -534 -68 -26
-159 -69 -203 -96 -202 -125 -239 -145 -312 -176 -280 -117 -545 -184 -1212
-305 -500 -91 -579 -107 -689 -146 -161 -56 -244 -121 -297 -233 -19 -38 -34
-77 -34 -86 0 -23 20 -38 61 -45 19 -4 79 -19 134 -35 188 -53 401 -97 810
-169 127 -22 374 -69 550 -104 549 -111 813 -139 1097 -118 421 32 743 155
981 372 111 101 304 365 429 585 75 132 208 403 348 710 163 358 328 685 418
827 174 278 300 424 384 447 66 19 111 -4 156 -79 85 -143 114 -307 161 -925
19 -245 29 -430 66 -1245 27 -591 26 -583 44 -604 14 -16 26 -18 100 -12 46 3
86 8 90 10 9 6 -5 322 -39 851 -44 692 -55 1015 -41 1176 34 380 130 709 376
1279 115 267 256 631 267 689 38 203 -95 510 -322 745 -128 132 -404 341 -581
439 -164 91 -366 147 -439 120z"/>
</g>
</svg>
